<?xml version="1.0" encoding="UTF-8"?>
<svg width="512px" height="512px" viewBox="0 0 512 512" version="1.1" xmlns="http://www.w3.org/2000/svg">
    <circle cx="256" cy="256" r="256" fill="#00B9E9"/>
    <path d="M160.584,358.008c-55.536,0-100.584-44.064-100.584-101.016s44.616-101.04,100.584-101.04c55.512,0,100.584,44.088,100.584,101.04c0,56.952-45.072,101.016-100.584,101.016Zm0-175.368c-41.088,0-74.232,33.408-74.232,74.304s33.264,74.4,74.232,74.4c41.088,0,74.232-33.504,74.232-74.4s-32.976-74.304-74.112-74.304ZM325.008,124.992c55.512,0,100.584,44.088,100.584,101.04c0,56.928-45.072,100.968-100.584,100.968-22.2,0-43.608-7.176-61.464-19.512l-3.936,4.128-37.32-24.36l45.144-9.84l2.784-3.024c12.72,16.464,33.744,26.232,55.152,26.232c41.088,0,74.232-33.48,74.232-74.4c0-40.56-33.264-74.304-74.232-74.304-21.528,0-42.456,9.864-55.416,26.52l-23.568-15.384c19.032-17.712,42.456-27.6,65.808-27.6Z" fill="white"/>
</svg>